<svg id="Capa_1" data-name="Capa 1" xmlns="http://www.w3.org/2000/svg" viewBox="0 0 349.99 90.61"><title>logo</title><path d="M134.24,97.5" transform="translate(-89.23 -96.97)" style="fill:#fff;stroke:#000;stroke-miterlimit:10;stroke-width:16px"/><polyline points="59.8 6.53 12.28 47.53 55.58 84.53" style="fill:#fff;stroke:#000;stroke-miterlimit:10;stroke-width:16px"/><path d="M196.85,97" transform="translate(-89.23 -96.97)" style="fill:#fff;stroke:#000;stroke-miterlimit:10;stroke-width:16px"/><polyline points="92.83 6.06 140.35 47.06 97.06 84.06" style="fill:#fff;stroke:#000;stroke-miterlimit:10;stroke-width:16px"/><path d="M287.7,143.88c-.28-4.48-.62-9.87-.56-13.88h-.06c-1.31,3.79-2.9,7.83-4.83,12.29L275.48,158h-3.76l-6.2-15.42A129,129,0,0,1,261.09,130h0c-.12,4-.4,9.4-.74,14.21l-1,13.79H254.7l2.56-31h6.44l6.4,15.33c1.56,3.9,2.84,7.38,3.79,10.67h.17A104.79,104.79,0,0,1,278,142.33L284.69,127h6.44l2.29,31h-4.76Z" transform="translate(-89.23 -96.97)" style="fill:#1b1464;stroke:#1b1464;stroke-miterlimit:10;stroke-width:2px"/><path d="M303.18,136l5.87,13.37c.61,1.5,1.27,3.27,1.71,4.63h.11c.5-1.36,1.05-3.09,1.72-4.72L317.9,136h5.15l-7.3,16.13c-3.49,7.76-5.87,11.74-9.2,14.17a14.33,14.33,0,0,1-6,2.66l-1.21-3.46a13.84,13.84,0,0,0,4.26-2,13,13,0,0,0,4.1-4.58,2.64,2.64,0,0,0,.38-1,3.17,3.17,0,0,0-.33-1.08L297.86,136Z" transform="translate(-89.23 -96.97)" style="fill:#1b1464;stroke:#1b1464;stroke-miterlimit:10;stroke-width:2px"/><path d="M340,126.94a55.43,55.43,0,0,1,8.9-.66c4.86,0,8,.71,10.34,2.31a6.36,6.36,0,0,1,3.14,5.62c0,3.07-2.41,5.77-6.38,7v.09c3.58.76,7.78,3.26,7.78,8a8,8,0,0,1-3.19,6.38c-2.63,2-6.88,3-13,3a66.89,66.89,0,0,1-7.55-.38ZM345,140h4.46c5.18,0,8.23-2.29,8.23-5.38,0-3.76-3.38-5.24-8.35-5.24a24,24,0,0,0-4.34.29Zm0,15.24a31.55,31.55,0,0,0,4.12.19c5.07,0,9.75-1.57,9.75-6.24,0-4.38-4.45-6.19-9.81-6.19H345Z" transform="translate(-89.23 -96.97)" style="fill:#1b1464;stroke:#1b1464;stroke-miterlimit:10;stroke-width:2px"/><path d="M370,125h5v34h-5Z" transform="translate(-89.23 -96.97)" style="fill:#1b1464;stroke:#1b1464;stroke-miterlimit:10;stroke-width:2px"/><path d="M408.33,146.77c0,8.52-7,12.24-13.59,12.24-7.39,0-13.08-4.58-13.08-11.86,0-7.72,6-12.24,13.53-12.24C403,134.91,408.33,139.72,408.33,146.77Zm-21.65.23c0,5.05,3.44,8.86,8.29,8.86s8.29-3.76,8.29-9c0-3.91-2.32-8.86-8.18-8.86S386.68,142.62,386.68,147Z" transform="translate(-89.23 -96.97)" style="fill:#1b1464;stroke:#1b1464;stroke-miterlimit:10;stroke-width:2px"/><path d="M438.11,136c-.11,1.1-.11,5.77-.11,5.77v13.86c0,5.42-1.28,8.74-4,10.79s-6.69,2.82-10.23,2.82c-3.38,0-7.1-.68-9.36-2l1.28-3.26a18.26,18.26,0,0,0,8.25,1.85c5.23,0,9.07-2.29,9.07-8.25V155h-.12c-1.57,2.2-4.59,3.95-8.95,3.95-7,0-12-5-12-11.51,0-8,6.22-12.54,12.67-12.54,4.88,0,7.56,2.15,8.78,4.1h.13l.23-3ZM433,144.53a5.26,5.26,0,0,0-.28-1.91,7.07,7.07,0,0,0-6.94-4.42c-4.74,0-8.12,3.38-8.12,8.71,0,4.52,2.71,8.29,8.07,8.29a7.25,7.25,0,0,0,6.88-4.29,6.26,6.26,0,0,0,.39-2.24Z" transform="translate(-89.23 -96.97)" style="fill:#1b1464;stroke:#1b1464;stroke-miterlimit:10;stroke-width:2px"/><text transform="translate(51.43 61.46) scale(0.89 1)" style="font-size:48.817466735839844px;fill:#1b1464;stroke:#1b1464;stroke-miterlimit:10;stroke-width:2px;font-family:InkFree, Ink Free">JS</text></svg>